<?xml version="1.0" standalone="no"?><!DOCTYPE svg PUBLIC "-//W3C//DTD SVG 1.1//EN" "http://www.w3.org/Graphics/SVG/1.1/DTD/svg11.dtd"><svg t="1596598105360" class="icon" viewBox="0 0 1024 1024" version="1.1" xmlns="http://www.w3.org/2000/svg" p-id="3536" xmlns:xlink="http://www.w3.org/1999/xlink" width="200" height="200"><defs><style type="text/css"></style></defs><path d="M505.2 121.8v231.7c-31.5 0-61.3 12.5-84 35.2-22.7 22.7-35.2 52.5-35.2 84v94.6l1.2 0.3c1 0.3 2 0.6 3 1 0.4 0.1 0.8 0.3 1.1 0.4l2.1 0.9c0.7 0.3 1.3 0.6 1.9 0.8 0.5 0.3 1.1 0.5 1.6 0.8 0.1 0 0.1 0.1 0.2 0.1 0.4 0.2 0.8 0.4 1.1 0.6 0.3 0.2 0.7 0.4 1 0.6 0.2 0.1 0.5 0.2 0.7 0.4 0.4 0.2 0.8 0.5 1.2 0.7 0.2 0.2 0.5 0.3 0.7 0.5 0.4 0.2 0.7 0.5 1.1 0.7 0.4 0.2 0.7 0.5 1.1 0.7 0.2 0.1 0.3 0.2 0.5 0.3l1.2 0.9c0.2 0.2 0.4 0.3 0.6 0.5 0.3 0.2 0.7 0.5 1 0.8 0.3 0.2 0.6 0.5 0.9 0.7 0.2 0.2 0.5 0.4 0.7 0.6 0.4 0.3 0.8 0.7 1.2 1.1 0.1 0.1 0.2 0.1 0.2 0.2 0.4 0.4 0.9 0.8 1.3 1.3l0.3 0.3 1.4 1.4c0.1 0.1 0.1 0.1 0.1 0.2 0.4 0.4 0.8 0.8 1.1 1.3 0.2 0.2 0.3 0.4 0.5 0.6 0.5 0.5 0.9 1.1 1.3 1.6s0.9 1.1 1.3 1.7c0.4 0.6 0.9 1.2 1.3 1.9 0.2 0.3 0.4 0.7 0.7 1 0.1 0.2 0.2 0.4 0.4 0.6l0.3 0.6c0.2 0.3 0.3 0.6 0.5 0.8 0.1 0.2 0.3 0.5 0.4 0.7 0.1 0.1 0.1 0.2 0.2 0.3 0.2 0.3 0.4 0.7 0.5 1 0.2 0.5 0.5 0.9 0.7 1.4 0.2 0.3 0.3 0.6 0.4 0.9 0.1 0.3 0.3 0.6 0.4 0.9 0.2 0.5 0.5 1 0.7 1.5 0 0.1 0.1 0.2 0.1 0.2l0.6 1.5c0 0.1 0.1 0.2 0.1 0.2 0.1 0.2 0.1 0.3 0.2 0.5l0.3 0.9c0.1 0.1 0.1 0.3 0.2 0.5l0.3 0.9c0.1 0.2 0.2 0.5 0.2 0.7 0.1 0.2 0.2 0.5 0.2 0.7 0 0.1 0.1 0.3 0.1 0.4 0.1 0.2 0.1 0.4 0.2 0.5v0.1c0.1 0.4 0.2 0.7 0.3 1 0.1 0.5 0.3 1.1 0.4 1.6 0 0.2 0.1 0.3 0.1 0.5s0.1 0.3 0.1 0.5c0.1 0.6 0.3 1.3 0.4 1.9 0.1 0.5 0.2 0.9 0.2 1.4 0.1 0.4 0.1 0.7 0.2 1.1v0.4c0 0.2 0 0.4 0.1 0.5v0.8c0 0.2 0 0.4 0.1 0.7v0.5c0 0.3 0 0.6 0.1 0.9 0 0.6 0.1 1.2 0.1 1.9v1.9c0 26.9-18.2 49.6-43 56.4-4.9 1.4-10.1 2.1-15.4 2.1-1.2 0-2.3-0.1-3.4-0.2v0.2H167.7v-0.1c-1.1 0.1-2.3 0.2-3.4 0.2-3.4 0-6.7-0.2-9.9-0.7V472.7c0-192.9 157.8-350.8 350.8-350.9z" fill="#E73F5F" p-id="3537"></path><path d="M505.2 199v154.5c-31.5 0-61.3 12.5-84 35.2-22.7 22.7-35.2 52.5-35.2 84v94.6l1.2 0.3c1 0.3 2 0.6 3 1 0.4 0.1 0.8 0.3 1.1 0.4 10.7 4.1 19.9 11.2 26.5 20.3 0.4 0.6 0.9 1.2 1.3 1.9 0.2 0.3 0.4 0.7 0.7 1 0.2 0.4 0.5 0.7 0.7 1.1 0.2 0.3 0.3 0.6 0.5 0.8 0.4 0.7 0.8 1.3 1.1 2 0.2 0.5 0.5 0.9 0.7 1.4l0.9 1.8c0.3 0.5 0.5 1.1 0.7 1.7 0.5 1.2 1 2.4 1.4 3.7l0.3 0.9c0.1 0.2 0.2 0.5 0.2 0.7 0.1 0.2 0.2 0.5 0.2 0.7 0 0.1 0 0.2 0.1 0.2 0.2 0.6 0.4 1.2 0.5 1.9 0.1 0.5 0.3 1.1 0.4 1.6 0.1 0.3 0.1 0.6 0.2 1 0.5 2.2 0.8 4.4 1 6.7v0.7c0 0.3 0 0.6 0.1 0.9 0 0.6 0.1 1.2 0.1 1.9v1.9c0 26.9-18.2 49.6-43 56.4-4.9 1.4-10.1 2.1-15.4 2.1-1.2 0-2.3-0.1-3.4-0.2v0.2H231.5V472.7c0-72.7 28.6-141.3 80.5-193.2 51.9-51.9 120.5-80.5 193.2-80.5z" fill="#F0E203" p-id="3538"></path><path d="M386 472.7v94.6l1.2 0.3c1 0.3 2 0.6 3 1 0.4 0.1 0.8 0.3 1.1 0.4 11.4 4.3 21.1 12.1 27.8 22.1 0.2 0.3 0.4 0.7 0.7 1 0.4 0.7 0.8 1.3 1.2 2 0.4 0.7 0.8 1.3 1.1 2 0.2 0.5 0.5 0.9 0.7 1.4 0.6 1.2 1.1 2.4 1.7 3.6l0.4 1c0.5 1.3 1 2.7 1.5 4.1 0.1 0.2 0.2 0.5 0.2 0.7l0.6 2.1c0.1 0.5 0.3 1.1 0.4 1.6 0.2 0.6 0.3 1.3 0.4 1.9 0.2 0.8 0.3 1.6 0.4 2.4 0.1 0.7 0.2 1.3 0.3 2 0.1 0.7 0.1 1.3 0.2 2 0 0.3 0 0.6 0.1 0.9 0 0.6 0.1 1.2 0.1 1.9v1.9c0 26.9-18.2 49.6-43 56.4-4.9 1.4-10.1 2.1-15.4 2.1-1.2 0-2.3-0.1-3.4-0.2v0.2h-58.4V472.7c0-52.1 20.5-101.3 57.8-138.6s86.5-57.8 138.6-57.8v77.2c-31.5 0-61.3 12.5-84 35.2-22.8 22.7-35.3 52.5-35.3 84z" fill="#07DBFF" p-id="3539"></path><path d="M429 623.7c0 26.9-18.2 49.6-43 56.4V567.3c24.8 6.7 43 29.4 43 56.4zM624.3 793c-17.5 10.2-29.3 29-29.3 50.7 0 8.8 2 17.2 5.4 24.6v0.1a58.5 58.5 0 0 1-5.5-24.8c0.1-21.6 11.9-40.5 29.4-50.6z" fill="#E73F5F" p-id="3540"></path><path d="M595 843.7c0 8.8 2 17.2 5.4 24.6v0.1a58.5 58.5 0 0 1-5.5-24.8c0.1-21.6 11.9-40.5 29.4-50.6v0.1C606.8 803.2 595 822 595 843.7z" fill="#07DBFF" p-id="3541"></path><path d="M701.6 472.7v324.8c0 37.5-10.6 73.5-30.5 104.6h-14.2v-0.1c-1.1 0.1-2.3 0.2-3.4 0.2-23.4 0-43.6-13.8-53-33.7 0 0 0-0.1-0.1-0.2 15.5-20.5 23.9-45.2 23.9-70.8v-4.4s0.1 0 0.1-0.1V472.7c0-31.4-12.5-61.3-35.2-84s-52.5-35.2-84-35.2v-77.2c52.1 0 101.3 20.5 138.6 57.8 37.2 37.3 57.8 86.5 57.8 138.6z" fill="#0BA8FF" p-id="3542"></path><path d="M778.8 472.7v324.8c0 36.4-7.2 71.8-20.9 104.6h-86.8C691 871 701.6 835 701.6 797.5V472.7c0-52.1-20.6-101.3-57.8-138.6-37.3-37.3-86.5-57.8-138.6-57.8V199c72.7 0 141.3 28.6 193.2 80.5 51.8 51.9 80.4 120.5 80.4 193.2z" fill="#ED9507" p-id="3543"></path><path d="M856.1 472.7v324.8c0 36.4-5.6 71.6-16 104.6h-82.2c13.7-32.8 20.9-68.2 20.9-104.6V472.7c0-72.7-28.6-141.3-80.4-193.2-51.9-51.9-120.5-80.5-193.2-80.5v-77.2h0.1c96.5 0 184.2 39.5 247.8 103.1s103 151.3 103 247.8z" fill="#CE1743" p-id="3544"></path><path d="M925 764.8c-17.4-17.4-40.6-27.1-65.2-27.1-5.8 0-11.5 0.5-17.1 1.6-14.7-41.4-54.2-70.4-99.9-70.4-55.8 0-101.6 43.3-105.7 98-35.5 7.5-62.2 39.1-62.2 76.8 0 43.3 35.2 78.5 78.5 78.5h206.3c50.8 0 92.2-41.4 92.2-92.2 0.1-24.6-9.5-47.8-26.9-65.2z" fill="#07DBFF" p-id="3545"></path><path d="M386.9 546.9c-4.1-54.7-49.9-98-105.7-98-45.7 0-85.2 29-99.9 70.4-5.6-1.1-11.4-1.6-17.1-1.6-24.7 0-47.8 9.6-65.2 27-17.4 17.5-27 40.7-26.9 65.3 0 50.8 41.4 92.2 92.2 92.2h206.3c43.3 0 78.5-35.2 78.5-78.5 0-37.7-26.7-69.3-62.2-76.8z" fill="#97EBFF" p-id="3546"></path></svg>