<?xml version="1.0" standalone="no"?><!DOCTYPE svg PUBLIC "-//W3C//DTD SVG 1.1//EN" "http://www.w3.org/Graphics/SVG/1.1/DTD/svg11.dtd"><svg t="1596598118269" class="icon" viewBox="0 0 1024 1024" version="1.1" xmlns="http://www.w3.org/2000/svg" p-id="3880" xmlns:xlink="http://www.w3.org/1999/xlink" width="200" height="200"><defs><style type="text/css"></style></defs><path d="M952 881.6c0 11.1-9 20-20 20H92c-11 0-20-8.9-20-20 0-11 9-20 20-20h840c11 0 20 8.9 20 20z" fill="#F0E203" p-id="3881"></path><path d="M209.6 730.4m-70.4 0a70.4 70.4 0 1 0 140.8 0 70.4 70.4 0 1 0-140.8 0Z" fill="#F0E203" p-id="3882"></path><path d="M462.213723 578.580701a70.4 70.4 0 1 0 99.558897-99.562372 70.4 70.4 0 1 0-99.558897 99.562372Z" fill="#F0E203" p-id="3883"></path><path d="M260 394.4m-70.4 0a70.4 70.4 0 1 0 140.8 0 70.4 70.4 0 1 0-140.8 0Z" fill="#F0E203" p-id="3884"></path><path d="M565.6 192.8c0 33-22.9 60.8-53.6 68.4-5.4 1.3-11 2-16.8 2-38.8 0-70.4-31.6-70.4-70.4s31.6-70.4 70.4-70.4c5.8 0 11.4 0.7 16.8 2 30.7 7.6 53.6 35.4 53.6 68.4z" fill="#F0E203" p-id="3885"></path><path d="M512 261.2V124.4c30.7 7.5 53.6 35.3 53.6 68.4 0 33-22.9 60.8-53.6 68.4zM512 599.2V458.4c38.8 0 70.4 31.6 70.4 70.4s-31.6 70.4-70.4 70.4z" fill="#ED9507" p-id="3886"></path><path d="M714.210894 712.981873a70.4 70.4 0 1 0 99.558898-99.562373 70.4 70.4 0 1 0-99.558898 99.562373Z" fill="#ED9507" p-id="3887"></path><path d="M764.612773 376.984408a70.4 70.4 0 1 0 99.558897-99.562372 70.4 70.4 0 1 0-99.558897 99.562372Z" fill="#ED9507" p-id="3888"></path><path d="M952 881.6c0 11.1-9 20-20 20H512v-40h420c11 0 20 8.9 20 20z" fill="#ED9507" p-id="3889"></path></svg>