<?xml version="1.0" standalone="no"?><!DOCTYPE svg PUBLIC "-//W3C//DTD SVG 1.1//EN" "http://www.w3.org/Graphics/SVG/1.1/DTD/svg11.dtd"><svg t="1596598124703" class="icon" viewBox="0 0 1024 1024" version="1.1" xmlns="http://www.w3.org/2000/svg" p-id="4045" xmlns:xlink="http://www.w3.org/1999/xlink" width="200" height="200"><defs><style type="text/css"></style></defs><path d="M419.3 293.1c28.5-12.1 59.8-18.8 92.7-18.8v475.4c-23.6 0-46.4-3.4-67.9-9.8-1.9-0.6-3.7-1.1-5.6-1.7-3.7-1.2-7.4-2.5-11-3.9s-7.2-2.8-10.7-4.4c-2.7-1.2-5.3-2.4-7.9-3.6-0.9-0.4-1.7-0.8-2.6-1.3-1.7-0.9-3.4-1.7-5.1-2.6-1.7-0.9-3.4-1.8-5-2.7-0.8-0.5-1.7-0.9-2.5-1.4-2.5-1.4-4.9-2.9-7.4-4.4-2.4-1.5-4.8-3.1-7.2-4.7-1.6-1.1-3.1-2.2-4.7-3.3-0.8-0.5-1.6-1.1-2.3-1.7-1.5-1.1-3.1-2.3-4.6-3.4-1.5-1.2-3-2.3-4.5-3.5-2.5-2-5-4.1-7.4-6.2l-6-5.4c-3.9-3.6-7.7-7.4-11.3-11.3-1.8-2-3.6-3.9-5.4-6-2.1-2.4-4.2-4.9-6.2-7.4-1.2-1.5-2.4-3-3.5-4.5s-2.3-3-3.4-4.6c-0.6-0.8-1.1-1.5-1.7-2.3-1.1-1.5-2.2-3.1-3.3-4.7-1.6-2.4-3.2-4.8-4.7-7.2-1.5-2.4-3-4.9-4.4-7.4-0.5-0.8-1-1.7-1.4-2.5-0.9-1.7-1.8-3.4-2.7-5-0.9-1.7-1.8-3.4-2.6-5.1-0.4-0.9-0.8-1.7-1.3-2.6-1.2-2.6-2.5-5.2-3.6-7.9-1.5-3.5-3-7.1-4.4-10.7s-2.7-7.3-3.9-11c-0.6-1.8-1.2-3.7-1.7-5.6-6.4-21.5-9.8-44.3-9.8-67.9v-3.2-2.7c0-1.3 0.1-2.6 0.1-3.9 0-0.8 0.1-1.7 0.1-2.5s0.1-1.5 0.1-2.3c0-0.5 0.1-1.1 0.1-1.6 0-0.6 0.1-1.2 0.1-1.8v-0.6c0-0.7 0.1-1.4 0.2-2 0.2-2.5 0.5-4.9 0.7-7.3 0.1-0.6 0.2-1.3 0.2-1.9 0.4-3.1 0.8-6.2 1.4-9.4 0.1-0.8 0.3-1.6 0.4-2.5 0.2-1.3 0.5-2.6 0.7-4 0.3-1.8 0.7-3.5 1.1-5.2 0.4-1.9 0.9-3.8 1.3-5.8v-0.1c0.2-0.9 0.5-1.8 0.7-2.8l1.5-5.7 0.6-2.1 0.3-1.2c0.5-1.7 1-3.4 1.6-5.1 0.3-0.9 0.6-1.9 0.9-2.8l0.9-2.7v-0.1c0.3-0.9 0.7-1.8 1-2.7 0.3-0.9 0.7-1.8 1-2.7 0.5-1.4 1-2.7 1.6-4.1 0.5-1.3 1.1-2.7 1.7-4 0.4-0.9 0.8-1.8 1.1-2.7s0.8-1.8 1.2-2.6c1.2-2.6 2.4-5.1 3.6-7.7 0.5-0.9 0.9-1.8 1.4-2.7 1.3-2.5 2.6-5 4-7.5l1.5-2.7c1.4-2.5 2.9-4.9 4.4-7.3l1.5-2.4c0.5-0.8 1-1.6 1.6-2.4 0.5-0.8 1.1-1.6 1.6-2.4 0.5-0.8 1.1-1.6 1.6-2.4 0.5-0.8 1-1.5 1.6-2.2 0 0 0-0.1 0.1-0.1 0.5-0.8 1.1-1.6 1.7-2.3 0.6-0.8 1.1-1.5 1.7-2.3 0.5-0.7 1.1-1.4 1.6-2.1 0.6-0.8 1.2-1.6 1.9-2.4 0.6-0.8 1.2-1.5 1.8-2.2 1.2-1.5 2.4-3 3.6-4.4 1.3-1.5 2.6-3.1 4-4.6 0.6-0.6 1.1-1.2 1.7-1.9 1.9-2.1 3.9-4.2 5.9-6.2 0.7-0.7 1.3-1.4 2-2 0.7-0.7 1.4-1.3 2-2 0.7-0.7 1.4-1.3 2-2 0.7-0.7 1.4-1.3 2.1-2 0.7-0.6 1.4-1.3 2.1-1.9 0.6-0.5 1.1-1 1.7-1.5 0.9-0.8 1.8-1.6 2.8-2.5 0.6-0.5 1.3-1.1 1.9-1.6 0.7-0.6 1.5-1.2 2.2-1.8 0.7-0.6 1.4-1.2 2.1-1.7 0.6-0.5 1.1-0.9 1.7-1.4 0.7-0.5 1.4-1.1 2.1-1.6 0.5-0.4 1-0.8 1.6-1.2 0.6-0.5 1.2-0.9 1.8-1.4 1.2-0.9 2.4-1.8 3.7-2.7 0.6-0.4 1.2-0.9 1.9-1.3 4.3-3 8.8-6 13.3-8.7 1.3-0.8 2.6-1.6 3.9-2.3 0.8-0.5 1.6-1 2.5-1.4 0.8-0.5 1.6-0.9 2.5-1.4 0.9-0.5 1.8-1 2.7-1.4 2.5-1.3 5-2.6 7.5-3.8 1.1-0.5 2.1-1 3.2-1.5s2.2-1 3.2-1.5c1.8-0.6 3.5-1.3 5.1-2zM706.7 648.4c3-4.3 5.9-8.8 8.7-13.3-2.8 4.6-5.7 9-8.7 13.3zM719.1 628.7c0.5-0.8 0.9-1.7 1.4-2.5v0.1c-0.5 0.8-1 1.6-1.4 2.4zM725.7 616.1c-1.2 2.5-2.5 5-3.8 7.5 1.3-2.5 2.6-5 3.8-7.5z" fill="#F0E203" p-id="4046"></path><path d="M512 551.7v198c-23.6 0-46.4-3.4-67.9-9.8-1.9-0.6-3.7-1.1-5.6-1.7-3.7-1.2-7.4-2.5-11-3.9-3.6-1.4-7.2-2.8-10.7-4.4-2.7-1.2-5.3-2.4-7.9-3.6-0.9-0.4-1.7-0.8-2.6-1.3-1.7-0.9-3.4-1.7-5.1-2.6-1.7-0.9-3.4-1.8-5-2.7-0.8-0.5-1.7-0.9-2.5-1.4-2.5-1.4-4.9-2.9-7.4-4.4-2.4-1.5-4.8-3.1-7.2-4.7-1.6-1.1-3.1-2.2-4.7-3.3-0.8-0.5-1.6-1.1-2.3-1.7-1.5-1.1-3.1-2.3-4.6-3.4-1.5-1.2-3-2.3-4.5-3.5-2.5-2-5-4.1-7.4-6.2-2-1.8-4-3.5-6-5.4-3.9-3.6-7.7-7.4-11.3-11.3-1.8-2-3.6-3.9-5.4-6-2.1-2.4-4.2-4.9-6.2-7.4-1.2-1.5-2.4-3-3.5-4.5s-2.3-3-3.4-4.6c-0.6-0.8-1.1-1.5-1.7-2.3-1.1-1.5-2.2-3.1-3.3-4.7-1.6-2.4-3.2-4.8-4.7-7.2-1.5-2.4-3-4.9-4.4-7.4-0.5-0.8-1-1.7-1.4-2.5-0.9-1.7-1.8-3.4-2.7-5-0.9-1.7-1.8-3.4-2.6-5.1-0.4-0.9-0.8-1.7-1.3-2.6-1.3-2.6-2.5-5.2-3.6-7.9-1.5-3.5-3-7.1-4.4-10.7-1.4-3.6-2.7-7.3-3.9-11-0.6-1.8-1.2-3.7-1.7-5.6-6.4-21.5-9.8-44.3-9.8-67.9v-3.2-2.7c0-1.3 0.1-2.6 0.1-3.9 0-0.8 0.1-1.7 0.1-2.5s0.1-1.5 0.1-2.3c0-0.5 0.1-1.1 0.1-1.6 0-0.6 0.1-1.2 0.1-1.8v-0.6c0-0.7 0.1-1.4 0.2-2 0.2-2.5 0.5-4.9 0.7-7.3 0.1-0.6 0.2-1.3 0.2-1.9 0.4-3.1 0.8-6.2 1.4-9.4 0.1-0.8 0.3-1.6 0.4-2.5 0.2-1.3 0.5-2.6 0.7-4 0.3-1.8 0.7-3.5 1.1-5.2 0.4-1.9 0.9-3.8 1.3-5.8v-0.1c0.2-0.9 0.5-1.8 0.7-2.8l1.5-5.7 0.6-2.1 0.3-1.2c0.5-1.7 1-3.4 1.6-5.1 0.3-0.9 0.6-1.9 0.9-2.8l0.9-2.7v-0.1c0.3-0.9 0.7-1.8 1-2.7 0.3-0.9 0.7-1.8 1-2.7 0.5-1.4 1-2.7 1.6-4.1 0.5-1.3 1.1-2.7 1.7-4 0.4-0.9 0.8-1.8 1.1-2.7s0.8-1.8 1.2-2.6c1.2-2.6 2.4-5.1 3.6-7.7 0.5-0.9 0.9-1.8 1.4-2.7 1.3-2.5 2.6-5 4-7.5l1.5-2.7c1.4-2.5 2.9-4.9 4.4-7.3l1.5-2.4c0.5-0.8 1-1.6 1.6-2.4 0.5-0.8 1.1-1.6 1.6-2.4 0.5-0.8 1.1-1.6 1.6-2.4 0.5-0.8 1-1.5 1.6-2.2 0 0 0-0.1 0.1-0.1 0.5-0.8 1.1-1.6 1.7-2.3 0.6-0.8 1.1-1.5 1.7-2.3 0.5-0.7 1.1-1.4 1.6-2.1 0.6-0.8 1.2-1.6 1.9-2.4 0.6-0.8 1.2-1.5 1.8-2.2 1.2-1.5 2.4-3 3.6-4.4 1.3-1.5 2.6-3.1 4-4.6 0.6-0.6 1.1-1.2 1.7-1.9 1.9-2.1 3.9-4.2 5.9-6.2 0.7-0.7 1.3-1.4 2-2 0.7-0.7 1.4-1.3 2-2 0.7-0.7 1.4-1.3 2-2 0.7-0.7 1.4-1.3 2.1-2 0.7-0.6 1.4-1.3 2.1-1.9 0.6-0.5 1.1-1 1.7-1.5 0.9-0.8 1.8-1.6 2.8-2.5 0.6-0.5 1.3-1.1 1.9-1.6 0.7-0.6 1.5-1.2 2.2-1.8 0.7-0.6 1.4-1.2 2.1-1.7 0.6-0.5 1.1-0.9 1.7-1.4 0.7-0.5 1.4-1.1 2.1-1.6 0.5-0.4 1-0.8 1.6-1.2 0.6-0.5 1.2-0.9 1.8-1.4 1.2-0.9 2.4-1.8 3.7-2.7 0.6-0.4 1.2-0.9 1.9-1.3 4.3-3 8.8-5.9 13.3-8.7 1.3-0.8 2.6-1.6 3.9-2.3 0.8-0.5 1.6-1 2.5-1.4 0.8-0.5 1.7-0.9 2.5-1.4 0.9-0.5 1.8-1 2.7-1.4 2.5-1.3 5-2.6 7.5-3.8 1.1-0.5 2.1-1 3.2-1.5s2.2-1 3.2-1.5c6.5-2.9 13.2-5.6 20-8-8.4 24.3-13 50.4-13 77.6 0.2 76 35.6 143.4 90.8 187zM620.2 723.7c2.5-1.3 5-2.6 7.5-4-2.5 1.4-5 2.7-7.5 4zM630.4 718.2c2.5-1.4 4.9-2.9 7.3-4.4-2.4 1.5-4.8 3-7.3 4.4zM678 682.1c-2 2-4.1 4-6.2 5.9 2.1-2 4.2-3.9 6.2-5.9z" fill="#97EBFF" p-id="4047"></path><path d="M641.1 916.8c2.9 10.7-3.5 21.6-14.1 24.5-1.7 0.5-3.4 0.7-5.2 0.7-8.8 0-16.9-5.9-19.3-14.8l-26.4-98.4c-2.9-10.7 3.5-21.6 14.1-24.5 10.7-2.9 21.6 3.5 24.5 14.1l26.4 98.4zM576.2 195.2l26.4-98.4c2.9-10.7 13.8-17 24.5-14.1 10.7 2.9 17 13.8 14.1 24.5l-26.4 98.4c-2.4 8.9-10.5 14.8-19.3 14.8-1.7 0-3.5-0.2-5.2-0.7-10.7-2.9-17-13.8-14.1-24.5zM730.9 604.7c2.1-4.9 4-10 5.8-15.1-24.3 8.4-50.4 13-77.6 13-55.5 0-106.6-19-147.1-50.9V274.3c131.3 0 237.7 106.4 237.7 237.7 0 32.9-6.7 64.2-18.8 92.7z" fill="#ED9507" p-id="4048"></path><path d="M728.8 609.6c0.7-1.6 1.5-3.3 2.2-5-0.8 1.7-1.5 3.4-2.2 5zM736.7 589.6c-2.4 6.8-5 13.5-8 20-0.5 1.1-1 2.2-1.5 3.2-0.5 1.1-1 2.1-1.5 3.2-1.2 2.5-2.5 5-3.8 7.5-0.5 0.9-0.9 1.8-1.4 2.6-0.5 0.8-0.9 1.7-1.4 2.5-0.5 0.8-0.9 1.7-1.4 2.5-0.8 1.3-1.5 2.6-2.3 3.9-2.8 4.5-5.6 9-8.7 13.3-0.4 0.6-0.9 1.2-1.3 1.9-0.9 1.2-1.8 2.4-2.7 3.7-0.5 0.6-0.9 1.2-1.4 1.8-0.4 0.5-0.8 1-1.2 1.6-0.5 0.7-1.1 1.4-1.6 2.1-0.5 0.6-0.9 1.1-1.4 1.7-0.6 0.7-1.1 1.4-1.7 2.1-0.6 0.7-1.2 1.5-1.8 2.2-0.5 0.6-1.1 1.3-1.6 1.9-0.8 0.9-1.6 1.9-2.5 2.8-0.5 0.6-1 1.2-1.5 1.7-0.6 0.7-1.3 1.4-1.9 2.1-0.7 0.7-1.3 1.4-2 2.1-0.7 0.7-1.3 1.4-2 2-0.7 0.7-1.3 1.4-2 2-0.7 0.7-1.4 1.3-2 2-2 2-4.1 4-6.2 5.9-0.6 0.6-1.2 1.1-1.9 1.7-1.5 1.3-3 2.7-4.6 4-1.5 1.2-2.9 2.4-4.4 3.6-0.7 0.6-1.5 1.2-2.2 1.8-0.8 0.6-1.6 1.3-2.4 1.9-0.7 0.5-1.4 1.1-2.1 1.6-0.8 0.6-1.5 1.1-2.3 1.7-0.8 0.6-1.5 1.1-2.3 1.7l-0.1 0.1c-0.8 0.5-1.5 1-2.2 1.6-0.8 0.5-1.6 1.1-2.4 1.6-0.8 0.5-1.6 1.1-2.4 1.6-0.8 0.5-1.6 1-2.4 1.6l-2.4 1.5c-2.4 1.5-4.9 3-7.3 4.4l-2.7 1.5c-2.5 1.4-5 2.7-7.5 4-0.9 0.5-1.8 0.9-2.7 1.4-2.5 1.2-5.1 2.5-7.7 3.6-0.9 0.4-1.8 0.8-2.6 1.2s-1.8 0.8-2.7 1.1c-1.3 0.6-2.7 1.1-4 1.7-1.4 0.5-2.7 1.1-4.1 1.6-0.9 0.3-1.8 0.7-2.7 1-0.9 0.3-1.8 0.7-2.7 1h-0.1l-2.7 0.9c-0.9 0.3-1.8 0.6-2.8 0.9-1.7 0.5-3.4 1.1-5.1 1.6l-1.2 0.3-2.1 0.6-5.7 1.5c-0.9 0.2-1.8 0.5-2.8 0.7h-0.1c-1.9 0.5-3.8 0.9-5.8 1.3-1.7 0.4-3.5 0.7-5.2 1.1-1.3 0.2-2.6 0.5-4 0.7-0.8 0.1-1.6 0.3-2.5 0.4-3.1 0.5-6.2 1-9.4 1.4-0.6 0.1-1.3 0.2-1.9 0.2-2.4 0.3-4.9 0.5-7.3 0.7-0.7 0.1-1.3 0.1-2 0.2h-0.6c-0.6 0-1.2 0.1-1.8 0.1-0.5 0-1.1 0.1-1.6 0.1-0.8 0-1.5 0.1-2.3 0.1-0.8 0-1.7 0.1-2.5 0.1-1.3 0-2.6 0.1-3.9 0.1H512v-198c40.5 31.9 91.6 50.9 147.1 50.9 27.2 0.3 53.3-4.3 77.6-12.7z" fill="#07DBFF" p-id="4049"></path><path d="M620.2 723.7c2.5-1.3 5-2.6 7.5-4-2.5 1.4-5 2.7-7.5 4zM630.4 718.2c2.5-1.4 4.9-2.9 7.3-4.4-2.4 1.5-4.8 3-7.3 4.4zM671.8 688c2.1-1.9 4.2-3.9 6.2-5.9-2 2-4.1 3.9-6.2 5.9zM706.7 648.4c3-4.3 5.9-8.8 8.7-13.3-2.8 4.6-5.7 9-8.7 13.3zM719.1 628.7c0.5-0.8 0.9-1.7 1.4-2.5v0.1c-0.5 0.8-1 1.6-1.4 2.4zM725.7 616.1c-1.2 2.5-2.5 5-3.8 7.5 1.3-2.5 2.6-5 3.8-7.5z" fill="#07DBFF" p-id="4050"></path><path d="M826.3 797.9c7.8 7.8 7.8 20.5 0 28.3-3.9 4-9 5.9-14.2 5.9-5.1 0-10.2-2-14.1-5.9l-72-72c-7.8-7.8-7.8-20.5 0-28.3 7.8-7.8 20.5-7.8 28.3 0l72 72zM726 298c-7.8-7.8-7.8-20.5 0-28.3l72-72c7.8-7.8 20.5-7.8 28.3 0s7.8 20.5 0 28.3l-72 72c-4 3.9-9.1 5.9-14.2 5.9s-10.2-2-14.1-5.9zM941.3 627.1c-2.4 8.9-10.5 14.8-19.3 14.8-1.7 0-3.5-0.2-5.2-0.7l-98.4-26.4c-10.7-2.9-17-13.8-14.1-24.5 2.9-10.7 13.8-17 24.5-14.1l98.4 26.4c10.7 2.9 17 13.8 14.1 24.5zM818.4 409.2l98.4-26.4c10.7-2.9 21.6 3.5 24.5 14.1 2.9 10.6-3.5 21.6-14.1 24.5l-98.4 26.4c-1.8 0.5-3.5 0.7-5.2 0.7-8.8 0-16.9-5.9-19.3-14.8-2.9-10.7 3.5-21.6 14.1-24.5z" fill="#ED9507" p-id="4051"></path><path d="M441.5 142H429v-22.5c0-11-9-20-20-20s-20 9-20 20V142h-12.5c-11 0-20 9-20 20s9 20 20 20H389v22.5c0 11 9 20 20 20s20-9 20-20V182h12.5c11 0 20-9 20-20s-9-20-20-20zM192.5 296.8H180v-22.5c0-11-9-20-20-20s-20 9-20 20v22.5h-12.5c-11 0-20 9-20 20s9 20 20 20H140v22.5c0 11 9 20 20 20s20-9 20-20v-22.5h12.5c11 0 20-9 20-20s-9-20-20-20zM165 671.2c11 0 20-9 20-20s-9-20-20-20h-12.5v-22.5c0-11-9-20-20-20s-20 9-20 20v22.5H100c-11 0-20 9-20 20s9 20 20 20h12.5v22.5c0 11 9 20 20 20s20-9 20-20v-22.5H165zM388.9 852.8h-12.5v-22.5c0-11-9-20-20-20s-20 9-20 20v22.5h-12.5c-11 0-20 9-20 20s9 20 20 20h12.5v22.5c0 11 9 20 20 20s20-9 20-20v-22.5h12.5c11 0 20-9 20-20s-9-20-20-20z" fill="#97EBFF" p-id="4052"></path><path d="M212.3 176.7a21 20 0 1 0 42 0 21 20 0 1 0-42 0Z" fill="#97EBFF" p-id="4053"></path><path d="M118 487.3a21 20 0 1 0 42 0 21 20 0 1 0-42 0Z" fill="#97EBFF" p-id="4054"></path><path d="M281.9 729.7a21 20 0 1 0 42 0 21 20 0 1 0-42 0Z" fill="#97EBFF" p-id="4055"></path><path d="M160 842a21 20 0 1 0 42 0 21 20 0 1 0-42 0Z" fill="#97EBFF" p-id="4056"></path></svg>